<svg xmlns="http://www.w3.org/2000/svg" xmlns:svg="http://www.w3.org/2000/svg" id="svg2" width="131.444" height="154.629" version="1.1"><metadata id="metadata7"/><g id="layer1" transform="translate(-263.68561,-343.30233)"><g id="1" transform="translate(262.49833,342.08712)"><path style="fill:#fdefe3;fill-opacity:1;fill-rule:evenodd;stroke:none" id="2" d="m 1.85,49.6 0,28.8 67.2,0 0,-28.8 -67.2,0 z"/><path style="fill:none;stroke:#c00000;stroke-width:1.29999995px;stroke-linecap:round;stroke-linejoin:round;stroke-opacity:1;stroke-dasharray:none" id="3" d="m 1.85,78.4 67.2,0 0,-28.8 -67.2,0 0,28.8 z"/><text style="font-size:9.60000038px;font-style:normal;font-weight:700;text-align:start;text-anchor:start;fill:#000;font-family:Arial" id="4" x="24.8" y="60.8" xml:space="preserve">Auth</text><text style="font-size:9.60000038px;font-style:normal;font-weight:700;text-align:start;text-anchor:start;fill:#000;font-family:Arial" id="5" x="8.8" y="72.8" xml:space="preserve">Component</text><path style="fill:#d1ebf1;fill-opacity:1;fill-rule:evenodd;stroke:none" id="6" d="m 1.85,126.4 0,28.8 67.2,0 0,-28.8 -67.2,0 z"/><path style="fill:none;stroke:#1f477d;stroke-width:1.29999995px;stroke-linecap:round;stroke-linejoin:round;stroke-opacity:1;stroke-dasharray:none" id="7" d="m 1.85,155.2 67.2,0 0,-28.8 -67.2,0 0,28.8 z"/><text style="font-size:9.60000038px;font-style:normal;font-weight:700;text-align:start;text-anchor:start;fill:#000;font-family:Arial" id="8" x="10.4" y="137.6" xml:space="preserve">OpenStack</text><text style="font-size:9.60000038px;font-style:normal;font-weight:700;text-align:start;text-anchor:start;fill:#000;font-family:Arial" id="9" x="18.4" y="149.6" xml:space="preserve">Service</text><path style="fill:none;stroke:#000;stroke-width:.75px;stroke-linecap:round;stroke-linejoin:round;stroke-opacity:1;stroke-dasharray:none" id="10" d="m 35.45,78.4 0,38.5"/><path style="fill:#000;fill-opacity:1;fill-rule:evenodd;stroke:none" id="11" d="M 38.9,116.05 35.45,126.4 32,116.05 l 6.9,0 z"/><path style="fill:none;stroke:#000;stroke-width:.75px;stroke-linecap:round;stroke-linejoin:round;stroke-opacity:1;stroke-dasharray:none" id="12" d="m 16.25,1.6 15.7,39.2"/><path style="fill:#000;fill-opacity:1;fill-rule:evenodd;stroke:none" id="13" d="M 34.8,38.7 35.45,49.6 28.4,41.25 34.8,38.7 z"/><path style="fill:none;stroke:#000;stroke-width:.75px;stroke-linecap:round;stroke-linejoin:round;stroke-opacity:1;stroke-dasharray:none" id="14" d="M 41.05,49.6 56.75,10.45"/><path style="fill:#000;fill-opacity:1;fill-rule:evenodd;stroke:none" id="15" d="M 53.2,9.95 60.25,1.6 59.6,12.5 53.2,9.95 z"/><text style="font-size:8.80000019px;font-style:italic;font-weight:400;text-align:start;text-anchor:start;fill:#1f477d;font-family:Arial" id="16" x="69.6" y="18.4" xml:space="preserve">Reject</text><text style="font-size:8.80000019px;font-style:italic;font-weight:400;text-align:start;text-anchor:start;fill:#1f477d;font-family:Arial" id="17" x="69.6" y="28.8" xml:space="preserve">unauthenticated</text><text style="font-size:8.80000019px;font-style:italic;font-weight:400;text-align:start;text-anchor:start;fill:#1f477d;font-family:Arial" id="18" x="69.6" y="39.2" xml:space="preserve">requests</text><text style="font-size:8.80000019px;font-style:italic;font-weight:400;text-align:start;text-anchor:start;fill:#1f477d;font-family:Arial" id="19" x="52" y="95.2" xml:space="preserve">Forward</text><text style="font-size:8.80000019px;font-style:italic;font-weight:400;text-align:start;text-anchor:start;fill:#1f477d;font-family:Arial" id="20" x="52" y="105.6" xml:space="preserve">authenticated</text><text style="font-size:8.80000019px;font-style:italic;font-weight:400;text-align:start;text-anchor:start;fill:#1f477d;font-family:Arial" id="21" x="52" y="116" xml:space="preserve">requests</text></g></g></svg>