<svg xmlns="http://www.w3.org/2000/svg" xmlns:xlink="http://www.w3.org/1999/xlink" width="784" height="104pt" viewBox="0 0 588 104"><g id="graph1" class="graph" transform="scale(1 1) rotate(0) translate(4 100)"><title>AuthCompDelegate</title><polygon fill="#fff" stroke="#fff" points="-4 5 -4 -100 585 -100 585 5 -4 5"/><g id="node2" class="node"><title>AuthComp</title><polygon fill="#fdefe3" stroke="#c00000" points="338 -65 240 -65 240 -25 338 -25 338 -65"/><text x="289" y="-48.4" font-family="Helvetica,sans-Serif" font-size="14" text-anchor="middle">Auth</text><text x="289" y="-32.4" font-family="Helvetica,sans-Serif" font-size="14" text-anchor="middle">Component</text></g><g id="edge3" class="edge"><title>AuthComp-&gt;Reject</title><path fill="none" stroke="#000" d="M239.6,-50.1899C191.406,-55.2531 118.917,-62.8686 73.5875,-67.6309"/><polygon fill="#000" stroke="#000" points="73.093 -64.163 63.513 -68.689 73.824 -71.125 73.093 -64.163"/><text x="152" y="-83.4" font-family="Times,serif" font-size="14" text-anchor="middle">Reject Requests</text><text x="152" y="-68.4" font-family="Times,serif" font-size="14" text-anchor="middle">Indicated by the Service</text></g><g id="node6" class="node"><title>Service</title><polygon fill="#d1ebf1" stroke="#1f477d" points="580 -65 486 -65 486 -25 580 -25 580 -65"/><text x="533" y="-48.4" font-family="Helvetica,sans-Serif" font-size="14" text-anchor="middle">OpenStack</text><text x="533" y="-32.4" font-family="Helvetica,sans-Serif" font-size="14" text-anchor="middle">Service</text></g><g id="edge5" class="edge"><title>AuthComp-&gt;Service</title><path fill="none" stroke="#000" d="M338.009,-49.0804C344.065,-49.4598 350.172,-49.7828 356,-50 405.743,-51.8535 418.259,-51.9103 468,-50 470.523,-49.9031 473.101,-49.7851 475.704,-49.6504"/><polygon fill="#000" stroke="#000" points="476.03 -53.137 485.807 -49.058 475.62 -46.149 476.03 -53.137"/><text x="412" y="-68.4" font-family="Times,serif" font-size="14" text-anchor="middle">Forward Requests</text><text x="412" y="-53.4" font-family="Times,serif" font-size="14" text-anchor="middle">with Identiy Status</text></g><g id="edge7" class="edge"><title>Service-&gt;AuthComp</title><path fill="none" stroke="#000" d="M495.062,-24.9037C486.397,-21.2187 477.064,-17.9304 468,-16 419.314,-5.63183 404.743,-5.9037 356,-16 349.891,-17.2653 343.655,-19.116 337.566,-21.2803"/><polygon fill="#000" stroke="#000" points="336.234 -18.043 328.158 -24.9 338.748 -24.576 336.234 -18.043"/><text x="412" y="-33.4" font-family="Times,serif" font-size="14" text-anchor="middle">Send Response OR</text><text x="412" y="-18.4" font-family="Times,serif" font-size="14" text-anchor="middle">Reject Message</text></g><g id="edge9" class="edge"><title>Start-&gt;AuthComp</title><path fill="none" stroke="#000" d="M59.0178,-20.8384C99.2135,-25.0613 175.782,-33.1055 229.492,-38.7482"/><polygon fill="#000" stroke="#000" points="229.265 -42.243 239.576 -39.808 229.997 -35.282 229.265 -42.243"/></g></g></svg>