<svg xmlns="http://www.w3.org/2000/svg" xmlns:xlink="http://www.w3.org/1999/xlink" width="680" height="118pt" viewBox="0 0 510 118"><g id="graph1" class="graph" transform="scale(1 1) rotate(0) translate(4 114)"><title>AuthComp</title><polygon fill="#fff" stroke="#fff" points="-4 5 -4 -114 507 -114 507 5 -4 5"/><g id="node2" class="node"><title>AuthComp</title><polygon fill="#fdefe3" stroke="#c00000" points="292 -65 194 -65 194 -25 292 -25 292 -65"/><text x="243" y="-48.4" font-family="Helvetica,sans-Serif" font-size="14" text-anchor="middle">Auth</text><text x="243" y="-32.4" font-family="Helvetica,sans-Serif" font-size="14" text-anchor="middle">Component</text></g><g id="edge3" class="edge"><title>AuthComp-&gt;Reject</title><path fill="none" stroke="#000" d="M193.933,-51.2787C157.514,-55.939 108.38,-62.2263 73.8172,-66.649"/><polygon fill="#000" stroke="#000" points="73.064 -63.217 63.589 -67.958 73.952 -70.16 73.064 -63.217"/><text x="129" y="-97.4" font-family="Times,serif" font-size="14" text-anchor="middle">Reject</text><text x="129" y="-82.4" font-family="Times,serif" font-size="14" text-anchor="middle">Unauthenticated</text><text x="129" y="-67.4" font-family="Times,serif" font-size="14" text-anchor="middle">Requests</text></g><g id="node6" class="node"><title>Service</title><polygon fill="#d1ebf1" stroke="#1f477d" points="502 -65 408 -65 408 -25 502 -25 502 -65"/><text x="455" y="-48.4" font-family="Helvetica,sans-Serif" font-size="14" text-anchor="middle">OpenStack</text><text x="455" y="-32.4" font-family="Helvetica,sans-Serif" font-size="14" text-anchor="middle">Service</text></g><g id="edge5" class="edge"><title>AuthComp-&gt;Service</title><path fill="none" stroke="#000" d="M292.17,-45C323.626,-45 364.563,-45 397.52,-45"/><polygon fill="#000" stroke="#000" points="397.917 -48.5 407.917 -45 397.917 -41.5 397.917 -48.5"/><text x="350" y="-77.4" font-family="Times,serif" font-size="14" text-anchor="middle">Forward</text><text x="350" y="-62.4" font-family="Times,serif" font-size="14" text-anchor="middle">Authenticated</text><text x="350" y="-47.4" font-family="Times,serif" font-size="14" text-anchor="middle">Requests</text></g><g id="edge7" class="edge"><title>Start-&gt;AuthComp</title><path fill="none" stroke="#000" d="M59.1526,-21.4745C90.4482,-25.4792 142.816,-32.1802 183.673,-37.4084"/><polygon fill="#000" stroke="#000" points="183.43 -40.906 193.793 -38.703 184.318 -33.962 183.43 -40.906"/></g></g></svg>